<svg xmlns="http://www.w3.org/2000/svg" width="800" height="800" viewBox="0 0 800 800">
  <defs>
    <style>
      .cls-1 {
        fill: #2587f6;
      }

      .cls-2 {
        fill: #fff;
      }

      .cls-2, .cls-3, .cls-4, .cls-5 {
        fill-rule: evenodd;
      }

      .cls-3, .cls-4, .cls-5 {
        fill: none;
        stroke: #fff;
      }

      .cls-3 {
        stroke-width: 48.35px;
      }

      .cls-4 {
        stroke-width: 53.8px;
      }

      .cls-5 {
        stroke-width: 29.24px;
      }
    </style>
  </defs>
  <rect class="cls-1" y="-2" width="801" height="803"/>
  <path class="cls-2" d="M204.5,128A86.5,86.5,0,1,1,118,214.5,86.5,86.5,0,0,1,204.5,128Zm394,0A86.5,86.5,0,1,1,512,214.5,86.5,86.5,0,0,1,598.5,128Z"/>
  <path class="cls-3" d="M104,398s83.385,145.677-11,219"/>
  <path class="cls-3" d="M117,470s329-163,543-6"/>
  <path class="cls-4" d="M679,608S562,482,695,388"/>
  <path class="cls-5" d="M53,169L206,52M758,169L605,52"/>
</svg>
